<?xml version="1.0" encoding="utf-8"?>
<!-- Generator: Adobe Illustrator 26.3.1, SVG Export Plug-In . SVG Version: 6.00 Build 0)  -->
<svg version="1.1" id="Interface-Essential-Paginate-Filter-Video--Streamline-Pixel.svg"
	 xmlns="http://www.w3.org/2000/svg" xmlns:xlink="http://www.w3.org/1999/xlink" x="0px" y="0px" viewBox="0 0 35.9 24"
	 style="enable-background:new 0 0 35.9 24;" xml:space="preserve">
<g>
	<path d="M30.4,2.3H28v2.2h-2.5v2.2H23v2.2h-2.5v2.2H18v2.2h2.5v2.2H23v2.2h2.5v2.2H28v2.2h2.5v2.2h5V0.1h-5
		C30.4,0.1,30.4,2.3,30.4,2.3z"/>
	<path d="M15.1,2.3h-2.5v2.2h-2.5v2.2H7.7v2.2H5.2v2.2H2.7v2.2h2.5v2.2h2.5v2.2h2.5v2.2h2.5v2.2h2.5v2.2h5V0.1h-5
		C15.1,0.1,15.1,2.3,15.1,2.3z"/>
	<path d="M0.5,21.7v2.2h4V0.1h-4c0,0,0,2.2,0,2.2L0.5,21.7z"/>
</g>
</svg>
