<?xml version="1.0" encoding="utf-8"?>
<!-- Generator: Adobe Illustrator 26.3.1, SVG Export Plug-In . SVG Version: 6.00 Build 0)  -->
<svg version="1.1" id="Interface-Essential-Paginate-Filter-Video--Streamline-Pixel.svg"
	 xmlns="http://www.w3.org/2000/svg" xmlns:xlink="http://www.w3.org/1999/xlink" x="0px" y="0px" viewBox="0 0 35.9 24"
	 style="enable-background:new 0 0 35.9 24;" xml:space="preserve">
<g>
	<path d="M5.5,21.7H8v-2.2h2.5v-2.2h2.5v-2.2h2.5v-2.2h2.5v-2.2h-2.5V8.8h-2.5V6.6h-2.5V4.4H8V2.3H5.5V0.1h-5v23.7h5
		C5.5,23.9,5.5,21.7,5.5,21.7z"/>
	<path d="M20.8,21.7h2.5v-2.2h2.5v-2.2h2.5v-2.2h2.5v-2.2h2.5v-2.2h-2.5V8.8h-2.5V6.6h-2.5V4.4h-2.5V2.3h-2.5V0.1h-5v23.7h5
		C20.8,23.9,20.8,21.7,20.8,21.7z"/>
	<path d="M35.4,2.3V0.1h-4v23.7h4c0,0,0-2.2,0-2.2V2.3z"/>
</g>
</svg>
